<svg width="1280" height="320" viewBox="0 0 1280 320" fill="none" xmlns="http://www.w3.org/2000/svg">
  <defs>
    <linearGradient id="canvas" x1="0" y1="0" x2="1280" y2="320" gradientUnits="userSpaceOnUse">
      <stop offset="0" stop-color="#07111f"/>
      <stop offset="0.46" stop-color="#0b1324"/>
      <stop offset="1" stop-color="#121826"/>
    </linearGradient>
    <linearGradient id="panel" x1="52" y1="48" x2="1228" y2="272" gradientUnits="userSpaceOnUse">
      <stop offset="0" stop-color="#0f172a"/>
      <stop offset="1" stop-color="#020617"/>
    </linearGradient>
    <linearGradient id="orbit" x1="120" y1="250" x2="1140" y2="82" gradientUnits="userSpaceOnUse">
      <stop offset="0" stop-color="#14b8a6"/>
      <stop offset="0.48" stop-color="#38bdf8"/>
      <stop offset="1" stop-color="#f97316"/>
    </linearGradient>
    <filter id="glow" x="-40%" y="-40%" width="180%" height="180%">
      <feGaussianBlur stdDeviation="4" result="blur"/>
      <feMerge>
        <feMergeNode in="blur"/>
        <feMergeNode in="SourceGraphic"/>
      </feMerge>
    </filter>
  </defs>

  <rect width="1280" height="320" rx="26" fill="url(#canvas)"/>
  <rect x="34" y="34" width="1212" height="252" rx="22" fill="url(#panel)" stroke="#1e293b"/>

  <g opacity="0.20" stroke="#334155">
    <path d="M78 80 H1202"/>
    <path d="M78 128 H1202"/>
    <path d="M78 176 H1202"/>
    <path d="M78 224 H1202"/>
    <path d="M210 58 V262"/>
    <path d="M390 58 V262"/>
    <path d="M570 58 V262"/>
    <path d="M750 58 V262"/>
    <path d="M930 58 V262"/>
    <path d="M1110 58 V262"/>
  </g>

  <path d="M72 238 C220 190 342 195 490 158 C642 120 742 74 884 105 C1010 132 1098 176 1202 92"
        stroke="url(#orbit)" stroke-width="3" fill="none" filter="url(#glow)"/>
  <path d="M76 206 C226 152 386 142 548 154 C744 168 906 218 1202 138"
        stroke="#94a3b8" stroke-width="1.4" fill="none" opacity="0.45"/>
  <path d="M74 248 C248 226 420 238 602 204 C792 168 974 172 1202 218"
        stroke="#475569" stroke-width="1.2" fill="none" opacity="0.55"/>

  <circle cx="490" cy="158" r="6" fill="#22d3ee" filter="url(#glow)"/>
  <circle cx="884" cy="105" r="6" fill="#60a5fa" filter="url(#glow)"/>
  <circle cx="1202" cy="92" r="6" fill="#f97316" filter="url(#glow)"/>

  <g font-family="Segoe UI, Arial, sans-serif">
    <text x="78" y="126" font-size="50" font-weight="800" fill="#f8fafc">Cemil Eray Halıcı</text>
    <text x="80" y="164" font-size="22" font-weight="650" fill="#67e8f9">Orbit determination and estimation software</text>
    <text x="82" y="199" font-size="16" fill="#cbd5e1">Lunar tracking geometry, square-root filtering, SPICE workflows, and scientific Python tools.</text>
  </g>

  <g font-family="Consolas, 'Courier New', monospace" font-size="13" font-weight="700">
    <rect x="80" y="224" width="116" height="30" rx="6" fill="#0f766e"/>
    <text x="104" y="244" fill="#ffffff">LUNAR OD</text>
    <rect x="208" y="224" width="116" height="30" rx="6" fill="#1d4ed8"/>
    <text x="237" y="244" fill="#ffffff">SPICE</text>
    <rect x="336" y="224" width="126" height="30" rx="6" fill="#7c3aed"/>
    <text x="358" y="244" fill="#ffffff">SR-UKF</text>
    <rect x="474" y="224" width="160" height="30" rx="6" fill="#ea580c"/>
    <text x="497" y="244" fill="#ffffff">PYTHON TOOLS</text>
  </g>

  <g transform="translate(760 70)">
    <rect x="0" y="0" width="402" height="158" rx="14" fill="#020617" opacity="0.84" stroke="#263244"/>
    <g font-family="Consolas, 'Courier New', monospace">
      <text x="24" y="34" font-size="13" fill="#64748b">OD PIPELINE</text>
      <text x="24" y="62" font-size="14" fill="#e2e8f0">truth trajectory</text>
      <text x="24" y="88" font-size="14" fill="#e2e8f0">visibility arcs</text>
      <text x="24" y="114" font-size="14" fill="#e2e8f0">measurement model</text>
      <text x="24" y="140" font-size="14" fill="#e2e8f0">estimator diagnostics</text>
    </g>
    <g stroke="#334155" stroke-width="1.4">
      <path d="M180 56 H348"/>
      <path d="M180 82 H348"/>
      <path d="M180 108 H348"/>
      <path d="M180 134 H348"/>
    </g>
    <g fill="#38bdf8" filter="url(#glow)">
      <circle cx="206" cy="56" r="4"/>
      <circle cx="268" cy="82" r="4"/>
      <circle cx="318" cy="108" r="4"/>
      <circle cx="348" cy="134" r="4"/>
    </g>
    <path d="M206 56 C232 66 248 72 268 82 C292 94 302 98 318 108 C332 118 340 126 348 134"
          stroke="#38bdf8" stroke-width="2" fill="none" opacity="0.9"/>
  </g>
</svg>
