<svg width="1280" height="300" viewBox="0 0 1280 300" fill="none" xmlns="http://www.w3.org/2000/svg">
  <defs>
    <linearGradient id="bg" x1="0" y1="0" x2="1280" y2="300" gradientUnits="userSpaceOnUse">
      <stop offset="0" stop-color="#06111f"/>
      <stop offset="0.52" stop-color="#0f172a"/>
      <stop offset="1" stop-color="#111827"/>
    </linearGradient>
    <linearGradient id="line" x1="80" y1="230" x2="1220" y2="80" gradientUnits="userSpaceOnUse">
      <stop offset="0" stop-color="#22d3ee"/>
      <stop offset="0.55" stop-color="#60a5fa"/>
      <stop offset="1" stop-color="#f97316"/>
    </linearGradient>
    <filter id="softGlow" x="-40%" y="-40%" width="180%" height="180%">
      <feGaussianBlur stdDeviation="4" result="blur"/>
      <feMerge>
        <feMergeNode in="blur"/>
        <feMergeNode in="SourceGraphic"/>
      </feMerge>
    </filter>
  </defs>

  <rect width="1280" height="300" rx="24" fill="url(#bg)"/>
  <rect x="38" y="36" width="1204" height="228" rx="16" fill="#020617" opacity="0.52" stroke="#1e293b"/>

  <g opacity="0.25" stroke="#334155" stroke-width="1">
    <path d="M80 78 H1200"/>
    <path d="M80 122 H1200"/>
    <path d="M80 166 H1200"/>
    <path d="M80 210 H1200"/>
    <path d="M80 242 H1200"/>
    <path d="M198 52 V248"/>
    <path d="M384 52 V248"/>
    <path d="M570 52 V248"/>
    <path d="M756 52 V248"/>
    <path d="M942 52 V248"/>
    <path d="M1128 52 V248"/>
  </g>

  <path d="M88 224 C210 168 305 154 430 126 C565 96 665 72 800 110 C948 152 1036 188 1200 76" stroke="url(#line)" stroke-width="3" fill="none" filter="url(#softGlow)"/>
  <path d="M92 238 C250 188 372 205 528 174 C700 140 810 166 964 196 C1075 218 1138 182 1200 150" stroke="#64748b" stroke-width="1.5" fill="none" opacity="0.55"/>
  <path d="M88 164 C278 116 440 150 620 152 C820 154 980 88 1200 112" stroke="#94a3b8" stroke-width="1.2" fill="none" opacity="0.35"/>

  <circle cx="430" cy="126" r="6" fill="#22d3ee" filter="url(#softGlow)"/>
  <circle cx="800" cy="110" r="6" fill="#60a5fa" filter="url(#softGlow)"/>
  <circle cx="1200" cy="78" r="6" fill="#f97316" filter="url(#softGlow)"/>

  <g font-family="Consolas, 'Courier New', monospace">
    <text x="74" y="82" font-size="13" fill="#64748b">STATE MODEL</text>
    <text x="74" y="103" font-size="13" fill="#e2e8f0">Moon-centered frame</text>
    <text x="74" y="125" font-size="13" fill="#94a3b8">third-body dynamics</text>

    <text x="354" y="82" font-size="13" fill="#64748b">TRACKING DATA</text>
    <text x="354" y="103" font-size="13" fill="#e2e8f0">range | angles | Doppler</text>
    <text x="354" y="125" font-size="13" fill="#94a3b8">visibility constrained</text>

    <text x="676" y="82" font-size="13" fill="#64748b">ESTIMATION</text>
    <text x="676" y="103" font-size="13" fill="#e2e8f0">BLS-LM | SRIF | SR-UKF</text>
    <text x="676" y="125" font-size="13" fill="#94a3b8">batch and sequential</text>

    <text x="1010" y="82" font-size="13" fill="#64748b">INTERPRETATION</text>
    <text x="1010" y="103" font-size="13" fill="#e2e8f0">error | covariance | NIS</text>
    <text x="1010" y="125" font-size="13" fill="#94a3b8">conditioning and runtime</text>
  </g>

  <g font-family="Segoe UI, Arial, sans-serif">
    <text x="74" y="188" font-size="44" font-weight="800" fill="#f8fafc">Cemil Eray Halici</text>
    <text x="76" y="222" font-size="20" font-weight="600" fill="#67e8f9">Building reproducible tools for lunar orbit determination</text>
  </g>

  <g font-family="Consolas, 'Courier New', monospace" font-size="13" font-weight="700">
    <rect x="76" y="238" width="112" height="28" rx="5" fill="#0f766e"/>
    <text x="96" y="257" fill="#ffffff">LUNAR OD</text>
    <rect x="198" y="238" width="104" height="28" rx="5" fill="#1d4ed8"/>
    <text x="219" y="257" fill="#ffffff">SPICE</text>
    <rect x="312" y="238" width="128" height="28" rx="5" fill="#7c3aed"/>
    <text x="333" y="257" fill="#ffffff">SR-UKF</text>
    <rect x="450" y="238" width="156" height="28" rx="5" fill="#f97316"/>
    <text x="471" y="257" fill="#ffffff">PYTHON TOOLS</text>
  </g>
</svg>
