<svg width="1280" height="320" viewBox="0 0 1280 320" fill="none" xmlns="http://www.w3.org/2000/svg">
  <defs>
    <linearGradient id="bg" x1="0" y1="0" x2="1280" y2="320" gradientUnits="userSpaceOnUse">
      <stop offset="0" stop-color="#071526"/>
      <stop offset="0.45" stop-color="#16245a"/>
      <stop offset="1" stop-color="#111827"/>
    </linearGradient>
    <linearGradient id="accent" x1="70" y1="250" x2="1240" y2="70" gradientUnits="userSpaceOnUse">
      <stop offset="0" stop-color="#22d3ee" stop-opacity="0.55"/>
      <stop offset="0.5" stop-color="#60a5fa" stop-opacity="0.35"/>
      <stop offset="1" stop-color="#f97316" stop-opacity="0.5"/>
    </linearGradient>
    <filter id="glow" x="-30%" y="-30%" width="160%" height="160%">
      <feGaussianBlur stdDeviation="5" result="blur"/>
      <feMerge>
        <feMergeNode in="blur"/>
        <feMergeNode in="SourceGraphic"/>
      </feMerge>
    </filter>
  </defs>
  <rect width="1280" height="320" rx="26" fill="url(#bg)"/>
  <path d="M0 260 C170 220 290 255 430 235 C610 210 730 250 900 230 C1070 210 1160 230 1280 205 L1280 320 L0 320 Z" fill="#050816" opacity="0.8"/>
  <path d="M40 235 C230 120 420 130 580 178 C760 232 930 154 1240 82" stroke="url(#accent)" stroke-width="2" opacity="0.75"/>
  <path d="M30 185 C250 90 450 110 610 150 C815 202 1010 125 1260 112" stroke="#38bdf8" stroke-width="1.5" opacity="0.35"/>
  <path d="M10 285 C180 220 375 220 560 242 C760 265 925 225 1270 250" stroke="#94a3b8" stroke-width="1" opacity="0.25"/>

  <circle cx="1038" cy="128" r="54" fill="#d1d5db" opacity="0.88"/>
  <circle cx="1018" cy="111" r="9" fill="#94a3b8" opacity="0.6"/>
  <circle cx="1059" cy="145" r="12" fill="#94a3b8" opacity="0.52"/>
  <circle cx="1049" cy="94" r="6" fill="#94a3b8" opacity="0.55"/>
  <circle cx="1001" cy="150" r="5" fill="#94a3b8" opacity="0.5"/>

  <ellipse cx="1038" cy="128" rx="112" ry="64" stroke="#22d3ee" stroke-dasharray="9 13" opacity="0.34"/>
  <ellipse cx="1038" cy="128" rx="150" ry="88" stroke="#60a5fa" stroke-dasharray="5 18" opacity="0.28"/>

  <g transform="translate(1130 118) rotate(-24)">
    <rect x="0" y="9" width="62" height="15" rx="3" fill="#e5e7eb"/>
    <rect x="20" y="5" width="15" height="23" rx="2" fill="#38bdf8"/>
    <rect x="43" y="0" width="15" height="33" rx="2" fill="#f59e0b"/>
    <path d="M62 16 L86 5 L78 16 L86 27 Z" fill="#60a5fa"/>
    <circle cx="-5" cy="16" r="4" fill="#fb923c" filter="url(#glow)"/>
  </g>

  <circle cx="86" cy="75" r="3" fill="#e0f2fe"/>
  <circle cx="145" cy="210" r="2.5" fill="#e0f2fe"/>
  <circle cx="610" cy="70" r="2" fill="#e0f2fe"/>
  <circle cx="730" cy="42" r="2.5" fill="#e0f2fe"/>
  <circle cx="1195" cy="54" r="2" fill="#e0f2fe"/>
  <circle cx="1180" cy="186" r="2.5" fill="#e0f2fe"/>

  <text x="70" y="128" font-family="Segoe UI, Arial, sans-serif" font-size="58" font-weight="800" fill="#f8fafc" filter="url(#glow)">Cemil Eray Halici</text>
  <text x="74" y="168" font-family="Segoe UI, Arial, sans-serif" font-size="24" font-weight="700" fill="#67e8f9">Orbit Determination | Estimation Algorithms | Scientific Python</text>
  <text x="74" y="212" font-family="Consolas, 'Courier New', monospace" font-size="18" fill="#cbd5e1">lunar tracking geometry - square-root filtering - mission-analysis tooling</text>

  <rect x="72" y="238" width="178" height="28" rx="4" fill="#0f766e"/>
  <rect x="260" y="238" width="188" height="28" rx="4" fill="#1d4ed8"/>
  <rect x="458" y="238" width="172" height="28" rx="4" fill="#f97316"/>
  <text x="92" y="257" font-family="Consolas, 'Courier New', monospace" font-size="14" font-weight="700" fill="white">LUNAR OD</text>
  <text x="280" y="257" font-family="Consolas, 'Courier New', monospace" font-size="14" font-weight="700" fill="white">SR-UKF / SRIF</text>
  <text x="478" y="257" font-family="Consolas, 'Courier New', monospace" font-size="14" font-weight="700" fill="white">SPICE + PYTHON</text>
</svg>
