<svg width="1200" height="180" viewBox="0 0 1200 180" fill="none" xmlns="http://www.w3.org/2000/svg">
  <defs>
    <marker id="arrow" viewBox="0 0 10 10" refX="8" refY="5" markerWidth="6" markerHeight="6" orient="auto-start-reverse">
      <path d="M 0 0 L 10 5 L 0 10 z" fill="#64748b"/>
    </marker>
    <linearGradient id="box" x1="0" y1="0" x2="1" y2="1">
      <stop offset="0" stop-color="#111827"/>
      <stop offset="1" stop-color="#0f172a"/>
    </linearGradient>
  </defs>
  <rect width="1200" height="180" rx="18" fill="#0b1120"/>
  <path d="M40 92 H1120" stroke="#1e293b" stroke-width="2"/>

  <g font-family="Segoe UI, Arial, sans-serif">
    <g transform="translate(45 55)">
      <rect width="170" height="64" rx="8" fill="url(#box)" stroke="#334155"/>
      <text x="85" y="28" text-anchor="middle" font-size="15" font-weight="700" fill="#f8fafc">Physical Model</text>
      <text x="85" y="48" text-anchor="middle" font-size="12" fill="#94a3b8">Moon, Earth, Sun</text>
    </g>
    <path d="M225 87 H282" stroke="#64748b" stroke-width="2" marker-end="url(#arrow)"/>

    <g transform="translate(295 55)">
      <rect width="170" height="64" rx="8" fill="url(#box)" stroke="#334155"/>
      <text x="85" y="28" text-anchor="middle" font-size="15" font-weight="700" fill="#f8fafc">Tracking Geometry</text>
      <text x="85" y="48" text-anchor="middle" font-size="12" fill="#94a3b8">Visibility and arcs</text>
    </g>
    <path d="M475 87 H532" stroke="#64748b" stroke-width="2" marker-end="url(#arrow)"/>

    <g transform="translate(545 55)">
      <rect width="170" height="64" rx="8" fill="url(#box)" stroke="#334155"/>
      <text x="85" y="28" text-anchor="middle" font-size="15" font-weight="700" fill="#f8fafc">Measurements</text>
      <text x="85" y="48" text-anchor="middle" font-size="12" fill="#94a3b8">Range, angles, Doppler</text>
    </g>
    <path d="M725 87 H782" stroke="#64748b" stroke-width="2" marker-end="url(#arrow)"/>

    <g transform="translate(795 55)">
      <rect width="170" height="64" rx="8" fill="url(#box)" stroke="#334155"/>
      <text x="85" y="28" text-anchor="middle" font-size="15" font-weight="700" fill="#f8fafc">Estimators</text>
      <text x="85" y="48" text-anchor="middle" font-size="12" fill="#94a3b8">BLS-LM, SRIF, SR-UKF</text>
    </g>
    <path d="M975 87 H1032" stroke="#64748b" stroke-width="2" marker-end="url(#arrow)"/>

    <g transform="translate(1045 55)">
      <rect width="110" height="64" rx="8" fill="#0f766e" stroke="#2dd4bf"/>
      <text x="55" y="28" text-anchor="middle" font-size="15" font-weight="700" fill="#f8fafc">Diagnostics</text>
      <text x="55" y="48" text-anchor="middle" font-size="12" fill="#ccfbf1">Insight</text>
    </g>
  </g>
</svg>
